<?xml version="1.0" encoding="UTF-8"?>
<svg version="1.1" xmlns="http://www.w3.org/2000/svg" width="1633" height="980">
<path d="M0 0 C538.89 0 1077.78 0 1633 0 C1633 323.4 1633 646.8 1633 980 C1094.11 980 555.22 980 0 980 C0 656.6 0 333.2 0 0 Z " fill="#FEFEFE" transform="translate(0,0)"/>
<path d="M0 0 C32.01 0 64.02 0 97 0 C102.125 15.375 102.125 15.375 104 23 C105.27688499 27.01941189 106.64030052 31.00799976 108 35 C110.55506267 42.58613528 113.0334711 50.19719379 115.5 57.8125 C115.89058594 59.00681641 116.28117188 60.20113281 116.68359375 61.43164062 C118.80780904 68.0009731 120.68505317 74.55863651 122.30444336 81.26928711 C123.32074685 85.25923255 124.64134474 89.11617591 126 93 C126.5633638 94.67114642 127.12447516 96.34305347 127.68359375 98.015625 C127.97169922 98.87542969 128.25980469 99.73523438 128.55664062 100.62109375 C128.84732422 101.48863281 129.13800781 102.35617187 129.4375 103.25 C129.72431641 104.10207031 130.01113281 104.95414062 130.30664062 105.83203125 C132.27850026 111.72565182 134.14147943 117.64700502 135.95776367 123.59033203 C137.76528111 129.50361113 139.60411662 135.4071996 141.4375 141.3125 C141.83838131 142.60432868 142.23926019 143.89615812 142.64013672 145.18798828 C144.62620678 151.58646927 146.61869962 157.98283366 148.625 164.375 C150.64878941 170.84690989 152.64266561 177.32777439 154.625 183.8125 C155.0593335 185.22764893 155.0593335 185.22764893 155.50244141 186.67138672 C156.92846155 191.34961842 158.28201732 196.03092312 159.5234375 200.76171875 C160.6730238 205.04165881 162.23264857 208.93150318 164 213 C165.29101244 216.87078818 166.45383932 220.77903022 167.625 224.6875 C170.56487204 234.38893919 173.61356289 244.04788401 176.75 253.6875 C179.44451029 261.98025833 182.03124318 270.24236551 184.05078125 278.7265625 C184.84625068 281.46978631 185.77341932 283.95856788 186.86328125 286.58984375 C189.31240622 292.58146309 191.08872274 298.72187568 192.875 304.9375 C193.57687048 307.34151245 194.28000165 309.74515719 194.984375 312.1484375 C195.32662109 313.31729492 195.66886719 314.48615234 196.02148438 315.69042969 C198.89460961 325.40801593 201.99277225 335.05376041 205.24633789 344.65014648 C208.31652893 353.71352546 211.02775587 362.84735696 213.60546875 372.0625 C215.00471063 377.06165523 216.49197909 382.03271256 218 387 C221.59422342 378.70477245 224.68863862 370.33961629 227.5 361.75 C227.92189509 360.47222984 228.34410574 359.19456384 228.76660156 357.91699219 C233.01163336 345.05528442 237.1876732 332.17045703 241.35742188 319.28417969 C244.20786101 310.47978099 247.08636619 301.68621616 250.03643799 292.91461182 C251.5765707 288.32350642 253.0048837 283.71088932 254.36328125 279.0625 C255.15740337 276.49012897 256.13321718 273.99617607 257.109375 271.48828125 C258.65628022 267.16644518 259.96033649 262.76447379 261.28662109 258.37060547 C262.89494968 253.10505032 262.89494968 253.10505032 264 252 C264.103125 251.030625 264.20625 250.06125 264.3125 249.0625 C264.84485524 245.06176969 266.22407933 241.67504421 267.76953125 237.96484375 C272.06729277 227.60928504 275.65846814 217.13309869 278.81323242 206.37817383 C281.02233456 198.85035095 283.46993328 191.42579149 286 184 C286.50146747 182.50048995 287.00167069 181.00055586 287.5 179.5 C287.72945312 178.81292969 287.95890625 178.12585938 288.1953125 177.41796875 C288.83890771 175.48405886 289.47868588 173.54887882 290.1171875 171.61328125 C290.53644986 170.34635136 290.95572075 169.0794243 291.375 167.8125 C291.75398438 166.66394531 292.13296875 165.51539063 292.5234375 164.33203125 C293.74480524 160.69622748 295.04113995 157.08931045 296.33984375 153.48046875 C299.07083598 145.85788277 301.64162576 138.18591381 304.1875 130.5 C304.66918893 129.04983182 305.15104469 127.59971905 305.63305664 126.1496582 C306.61606656 123.19195356 307.59835944 120.23401237 308.58007812 117.27587891 C310.69294715 110.91099504 312.81571638 104.54941686 314.9375 98.1875 C315.33767334 96.98633545 315.73784668 95.7851709 316.15014648 94.54760742 C318.19276439 88.41652744 320.23808001 82.28637341 322.28918457 76.15812683 C323.61051175 72.20993714 324.93057566 68.26132596 326.25 64.3125 C326.50763123 63.54154999 326.76526245 62.77059998 327.03070068 61.97628784 C330.17743202 52.55293928 333.30055813 43.12504959 336.21386719 33.6262207 C337.64321441 28.99010865 339.28760462 24.56638769 341 20 C344.465 10.1 344.465 10.1 348 0 C379.68 0 411.36 0 444 0 C444 1.65 444 3.3 444 5 C443.2265625 5.08636719 442.453125 5.17273438 441.65625 5.26171875 C432.47951567 6.4996693 426.4258403 8.60950635 420.625 16 C416.79640248 21.30442561 415.74989716 25.69517024 415.74273109 32.23751259 C415.73747198 33.32009386 415.73747198 33.32009386 415.73210663 34.42454547 C415.72278199 36.84972669 415.72771866 39.27466834 415.73257446 41.69985962 C415.72883872 43.45350222 415.7242375 45.20714317 415.71884382 46.96078146 C415.70658866 51.78533744 415.70687725 56.60982421 415.70923257 61.43439221 C415.70964011 66.63566489 415.69860749 71.83691519 415.68911743 77.03817749 C415.67249187 87.23139725 415.66700715 97.42459388 415.66589268 107.61782606 C415.66494279 115.90375319 415.66083546 124.18967267 415.65449142 132.47559738 C415.63687355 155.96412532 415.62765322 179.45263498 415.62915237 202.94116957 C415.62923228 204.20791272 415.6293122 205.47465586 415.62939453 206.77978516 C415.62951717 208.68221861 415.62951717 208.68221861 415.62964229 210.62308507 C415.630455 231.17245509 415.61132265 251.72175178 415.5831178 272.2711006 C415.55439048 293.36751874 415.54057747 314.46390113 415.54230535 335.56033933 C415.54296938 347.40570189 415.53747158 359.2509876 415.51594925 371.09633255 C415.49773933 381.18338311 415.49338849 391.27032201 415.5069681 401.3573819 C415.51349909 406.50303464 415.51361012 411.64847315 415.4962616 416.79410553 C415.48053151 421.50825675 415.483394 426.22202388 415.50082986 430.93616574 C415.50389992 432.6380867 415.50026716 434.34003632 415.48910971 436.04192348 C415.42454713 446.59189805 415.70797218 456.76874698 422.4375 465.5 C426.75326865 469.710506 431.06306135 471.503321 436.8125 473.1875 C438.55466797 473.70376953 438.55466797 473.70376953 440.33203125 474.23046875 C441.21246094 474.48441406 442.09289063 474.73835938 443 475 C443 476.32 443 477.64 443 479 C402.41 479 361.82 479 320 479 C320 477.35 320 475.7 320 474 C321.27875 473.773125 322.5575 473.54625 323.875 473.3125 C331.4592377 471.56872251 337.94959409 469.13899906 342.5 462.5625 C346.06105025 456.77579335 347.25014281 451.48891628 347.24609566 444.71803474 C347.24955719 443.64650728 347.24955719 443.64650728 347.25308865 442.55333281 C347.25838298 440.1593318 347.24940935 437.76559975 347.24050903 435.37161255 C347.24138122 433.63814222 347.24313243 431.90467216 347.24568737 430.17120349 C347.25016239 425.40746643 347.24215505 420.64381919 347.23213124 415.88009357 C347.2235013 410.74313675 347.22641658 405.60618506 347.22793579 400.46922302 C347.22898493 391.56897912 347.22270529 382.66876452 347.21146011 373.76852798 C347.19521202 360.90025364 347.18999781 348.03199348 347.18748413 335.16370998 C347.18310595 314.28621529 347.16979348 293.40873621 347.15087891 272.53125 C347.13252331 252.24967527 347.11836523 231.96810479 347.10986328 211.68652344 C347.10933783 210.43654863 347.10881239 209.18657383 347.10827102 207.89872099 C347.10566096 201.62801897 347.10313354 195.35731692 347.10064721 189.08661485 C347.07991086 137.05773243 347.04468196 85.02886698 347 33 C346.79517219 33.68660296 346.59034437 34.37320593 346.37930965 35.08061504 C345.97534387 36.43165184 345.97534387 36.43165184 345.56321716 37.8099823 C345.29651435 38.70283526 345.02981153 39.59568823 344.75502682 40.51559734 C343.93345888 43.21895239 343.04253394 45.88808537 342.09765625 48.55078125 C341.76443359 49.49759766 341.43121094 50.44441406 341.08789062 51.41992188 C340.40842337 53.33666663 339.72873856 55.25333428 339.04882812 57.16992188 C337.32241947 62.07638193 335.67838709 66.98887841 334.17578125 71.96875 C331.39475419 81.12038781 328.23591217 90.14409316 325.125 99.1875 C321.61628204 109.40417178 318.10910616 119.62093939 314.6875 129.8671875 C314.44661652 130.58726486 314.20573303 131.30734222 313.95755005 132.04924011 C312.53389884 136.32723463 311.17939297 140.62124831 309.875 144.9375 C308.42743167 149.71686816 306.7869252 154.38678507 305.04467773 159.06542969 C304.03078707 161.91351703 303.14065022 164.77101066 302.27734375 167.66796875 C299.34087946 177.2872333 295.99963244 186.76824317 292.71166992 196.27172852 C289.37144295 205.9359387 286.14119341 215.6165953 283.1237793 225.38647461 C279.84696286 235.92311596 276.18160413 246.33655016 272.59997559 256.77255249 C267.97797791 270.24441782 263.38378909 283.72408948 258.91015625 297.24609375 C257.49765642 301.51503203 256.06341087 305.77620067 254.62109375 310.03515625 C254.21600586 311.2363208 253.81091797 312.43748535 253.39355469 313.67504883 C252.61787763 315.97428752 251.83885332 318.27240113 251.05566406 320.5690918 C249.31019372 325.75833867 247.74022266 330.90287502 246.48828125 336.234375 C245.42339854 340.67217132 243.98325308 344.57084045 242.03515625 348.68554688 C239.99849478 353.2392145 238.54617685 358.01246614 237 362.75 C236.65042236 363.80968994 236.30084473 364.86937988 235.94067383 365.96118164 C233.8179216 372.42059034 231.76089495 378.89529666 229.7890625 385.40234375 C227.64058461 392.47530316 225.1292668 399.34083927 222.37890625 406.203125 C221.18739452 409.3462047 220.21053232 412.53668987 219.23828125 415.75390625 C216.58845889 424.47388022 213.59653526 433.07295431 210.625 441.6875 C209.51187145 444.92017839 208.40002465 448.15329523 207.2890625 451.38671875 C207.01821838 452.17464813 206.74737427 452.96257751 206.46832275 453.77438354 C203.59016007 462.16464501 200.79359754 470.58122797 198 479 C190.41 479 182.82 479 175 479 C174.4225 476.97875 173.845 474.9575 173.25 472.875 C173.05510986 472.19469727 172.86021973 471.51439453 172.65942383 470.81347656 C171.7457387 467.62316016 170.84118748 464.43087261 169.94921875 461.234375 C168.39833553 455.70149431 166.81971728 450.26157903 164.71484375 444.9140625 C163.25847118 441.01448567 162.16401011 436.99439257 161 433 C159.07870224 426.50733862 157.07686659 420.04182332 155.04516602 413.58300781 C153.59426222 408.95166729 152.19268873 404.3074835 150.81274414 399.65454102 C148.35917562 391.38203094 145.78726056 383.16657633 143.00415039 374.99853516 C141.54143255 370.69571104 140.22040643 366.37968436 139 362 C136.54524571 353.41725402 134.00508046 344.88808684 131.125 336.4375 C128.75402477 329.4705628 126.64792275 322.45038192 124.625 315.375 C121.62944005 304.91444762 118.26496736 294.60752612 114.78125 284.30078125 C112.73206695 278.23507188 110.84965756 272.12940917 109 266 C108.13127577 263.16470563 107.25425258 260.33204473 106.375 257.5 C106.1685083 256.82839844 105.9620166 256.15679687 105.74926758 255.46484375 C104.64303112 251.90474919 103.38674483 248.45793452 102 245 C101.51714199 243.03637741 101.03510315 241.07251952 100.56640625 239.10546875 C100.00064489 237.00239721 99.29265875 235.02745378 98.5 233 C97.23583285 229.75109043 96.33334018 226.53336227 95.53125 223.14453125 C94.29763187 218.16470514 92.90352166 213.17908166 90.9375 208.4375 C89.85744698 205.62936214 89.31522926 202.7926934 88.6953125 199.85546875 C86.78923495 192.02770083 84.12638283 184.35231016 81.5703125 176.71484375 C74.34228821 155.10233547 67.568806 133.31450152 61.1875 111.4375 C59.2416366 104.76921498 57.17045068 98.18975857 54.77734375 91.66796875 C52.66481684 85.88469537 50.6630779 80.26461746 49.49365234 74.21459961 C49.00459489 72.02061338 48.36681748 69.96097211 47.63671875 67.8359375 C46.01460401 63.05344503 44.46401086 58.25127977 42.9375 53.4375 C42.68162109 52.63892578 42.42574219 51.84035156 42.16210938 51.01757812 C41.91138672 50.22673828 41.66066406 49.43589844 41.40234375 48.62109375 C41.18054443 47.9242749 40.95874512 47.22745605 40.73022461 46.50952148 C39.7189712 43.03420428 38.87784707 39.51138828 38 36 C37.67 124.11 37.34 212.22 37 303 C32 296.33333333 32 296.33333333 32 291 C31.34 291 30.68 291 30 291 C28.28528555 288.01212783 27.74950084 285.87177509 27.74666691 282.43840408 C27.74105151 281.52272384 27.73543612 280.6070436 27.72965056 279.66361547 C27.73363165 278.66129534 27.73761274 277.65897521 27.74171448 276.62628174 C27.73803877 275.55861785 27.73436307 274.49095396 27.73057598 273.39093661 C27.720569 269.80126638 27.72475221 266.21175024 27.72875977 262.62207031 C27.72437423 260.0532108 27.71907271 257.48435271 27.71292114 254.91549683 C27.70087321 249.37708248 27.69576804 243.83869692 27.69503975 238.30027008 C27.6937141 230.28390869 27.67860199 222.26761714 27.65954458 214.2512804 C27.62869575 201.23393515 27.60453457 188.21658814 27.58666992 175.19921875 C27.58559724 174.42003817 27.58452456 173.64085759 27.58341938 172.83806548 C27.57160391 164.14851493 27.56139829 155.45896367 27.55297852 146.76940918 C27.54990471 143.62036131 27.5468159 140.47131345 27.54370117 137.32226562 C27.54293583 136.5452469 27.54217049 135.76822818 27.54138196 134.96766344 C27.52829293 122.00396665 27.50364202 109.0403203 27.46995777 96.07666087 C27.44968329 88.08271731 27.43937624 80.08888172 27.44194698 72.09491226 C27.44310595 65.96617777 27.42893661 59.83756675 27.40913773 53.70886612 C27.40353601 51.19663988 27.403055 48.6843962 27.40807533 46.17216873 C27.41421161 42.7418041 27.40199329 39.3119712 27.38526917 35.88165283 C27.39148098 34.88825559 27.3976928 33.89485835 27.40409285 32.87135816 C27.35080619 26.87007913 26.41303935 22.50141217 24 17 C23.67 16.01 23.34 15.02 23 14 C21.16501763 12.91018994 21.16501763 12.91018994 19 12 C18.00613281 11.39671875 18.00613281 11.39671875 16.9921875 10.78125 C11.4582659 7.43230851 6.39015846 5.89382175 0 5 C0 3.35 0 1.7 0 0 Z " fill="#020202" transform="translate(720,217)"/>
<path d="M0 0 C22.72157299 -1.02580465 47.34864607 2.0798827 67.54882812 13.1328125 C69.20466037 13.82595158 70.86993791 14.49755674 72.54882812 15.1328125 C74.21549479 15.79947917 75.88216146 16.46614583 77.54882812 17.1328125 C77.54882812 17.7928125 77.54882812 18.4528125 77.54882812 19.1328125 C78.84433594 19.49052734 78.84433594 19.49052734 80.16601562 19.85546875 C83.92398167 21.27446979 86.51055553 23.10684317 89.67382812 25.5703125 C90.68703125 26.35277344 91.70023438 27.13523438 92.74414062 27.94140625 C93.6696875 28.66457031 94.59523438 29.38773438 95.54882812 30.1328125 C96.61154938 30.79057426 96.61154938 30.79057426 97.69573975 31.46162415 C99.54882812 33.1328125 99.54882812 33.1328125 100.02984619 35.39176941 C100.02096375 36.2733522 100.0120813 37.154935 100.00292969 38.06323242 C100.00262756 39.06404343 100.00232544 40.06485443 100.00201416 41.09599304 C99.98136902 42.17419815 99.96072388 43.25240326 99.93945312 44.36328125 C99.93379333 45.46883865 99.92813354 46.57439606 99.92230225 47.7134552 C99.89988608 51.24951214 99.84967809 54.78456109 99.79882812 58.3203125 C99.77876999 60.71548017 99.76051803 63.11066371 99.74414062 65.50585938 C99.70000413 71.38185517 99.6330394 77.25726183 99.54882812 83.1328125 C98.22882813 83.1328125 96.90882813 83.1328125 95.54882812 83.1328125 C95.14664063 81.4621875 95.14664063 81.4621875 94.73632812 79.7578125 C91.00964674 64.97987427 85.6672037 51.73020817 75.54882812 40.1328125 C74.82373047 39.17761719 74.82373047 39.17761719 74.08398438 38.203125 C65.61645958 27.47328442 53.07968505 20.07793995 40.54882812 15.1328125 C39.59105469 14.74480469 38.63328125 14.35679687 37.64648438 13.95703125 C16.79238516 5.9137251 -7.02729074 7.14427276 -27.56054688 15.77734375 C-40.79111462 21.82372875 -52.74083649 31.44769839 -58.45117188 45.1328125 C-65.98658022 67.17265064 -63.6219719 92.08889813 -53.57128906 112.95996094 C-47.74690603 124.82041278 -40.59155702 135.06650529 -31.60742188 144.7890625 C-29.64345119 146.92381324 -27.76203826 149.10633404 -25.88867188 151.3203125 C-22.38392984 155.32801295 -18.52421695 158.71627798 -14.45117188 162.1328125 C-13.387832 163.04589783 -12.32539957 163.96004054 -11.26367188 164.875 C-10.11812587 165.85710608 -8.97229177 166.83887621 -7.82617188 167.8203125 C-7.28782715 168.2841333 -6.74948242 168.7479541 -6.19482422 169.22583008 C-2.76386239 172.14272524 0.78722979 174.64560957 4.54882812 177.1328125 C7.24439667 179.13712701 9.89447262 181.1993698 12.54882812 183.2578125 C18.9578489 188.19432235 25.44947705 192.97656393 32.05273438 197.6484375 C35.93383381 200.39639352 39.77538238 203.1972897 43.61132812 206.0078125 C44.23088379 206.46043457 44.85043945 206.91305664 45.48876953 207.37939453 C48.14968733 209.33190036 50.76472994 211.30638062 53.33789062 213.375 C55.34940804 214.97426296 57.20951964 216.09311984 59.54882812 217.1328125 C59.54882812 217.7928125 59.54882812 218.4528125 59.54882812 219.1328125 C60.10570312 219.38160156 60.66257812 219.63039063 61.23632812 219.88671875 C69.65837518 224.42495019 76.85525856 232.14542206 83.82226562 238.65234375 C85.57880477 240.25034139 87.38459317 241.79657952 89.24414062 243.2734375 C92.11318657 245.58812542 94.22054559 248.2806664 96.54882812 251.1328125 C98.76271365 253.40653277 101.01207818 255.62909332 103.32617188 257.80078125 C126.52727763 280.08303133 140.76041444 311.95922032 148.29882812 342.7578125 C148.59672241 343.95374023 148.59672241 343.95374023 148.90063477 345.17382812 C152.03110653 358.54838331 152.9017952 371.90394918 152.86450195 385.58642578 C152.86133904 387.99948299 152.88493507 390.41131123 152.91015625 392.82421875 C152.95551804 403.86865706 151.73120627 414.31569066 149.54882812 425.1328125 C149.33508545 426.22384277 149.12134277 427.31487305 148.90112305 428.43896484 C143.0344845 456.77745167 130.11502237 480.95528461 110.54882812 502.1328125 C109.78957031 502.96296875 109.0303125 503.793125 108.24804688 504.6484375 C82.74581867 531.31621544 45.54838517 545.29915506 9.10351562 546.3515625 C-27.15253575 547.0043515 -27.15253575 547.0043515 -38.45117188 541.1328125 C-40.39951567 540.61452049 -42.35932282 540.13822889 -44.32617188 539.6953125 C-48.76107522 538.62814712 -52.41660503 537.28458148 -56.45117188 535.1328125 C-57.78033557 534.72319601 -59.11429906 534.32902188 -60.45117188 533.9453125 C-85.37526151 525.8042782 -107.81092927 502.89735914 -119.73413086 480.11499023 C-128.05875564 463.58221041 -133.955358 446.09236007 -134.39550781 427.4375 C-134.43778356 425.68713572 -134.49596968 423.93714712 -134.56152344 422.1875 C-135.66841977 390.71071693 -129.8047664 357.62129643 -108.45117188 333.1328125 C-107.41863281 331.92044922 -107.41863281 331.92044922 -106.36523438 330.68359375 C-90.27931871 312.25534299 -70.85721713 300.66119652 -46.45117188 297.1328125 C-30.04589309 296.16135832 -13.83512009 295.76882496 1.54882812 302.1328125 C2.73992187 302.59816406 3.93101562 303.06351563 5.15820312 303.54296875 C8.68103816 304.96119929 12.15188711 306.43434199 15.54882812 308.1328125 C15.54882812 308.7928125 15.54882812 309.4528125 15.54882812 310.1328125 C16.24234375 310.34679687 16.93585938 310.56078125 17.65039062 310.78125 C21.33956695 312.50153977 24.00996081 314.98211187 26.92382812 317.7578125 C27.49818604 318.29833252 28.07254395 318.83885254 28.66430664 319.39575195 C44.83844818 334.77297982 54.69748864 352.50782073 55.54882812 375.1328125 C55.57605957 375.8129541 55.60329102 376.4930957 55.63134766 377.19384766 C56.50959412 402.1769215 48.89637907 422.37609065 31.93945312 440.74609375 C16.52755153 456.1328125 16.52755153 456.1328125 9.54882812 456.1328125 C9.54882812 456.7928125 9.54882812 457.4528125 9.54882812 458.1328125 C8.22882813 458.1328125 6.90882813 458.1328125 5.54882812 458.1328125 C6.9463286 454.97446143 8.60081047 452.81008425 11.04882812 450.3828125 C11.65726563 449.76921875 12.26570312 449.155625 12.89257812 448.5234375 C14.54882812 447.1328125 14.54882812 447.1328125 16.54882812 447.1328125 C16.80277344 446.57207031 17.05671875 446.01132812 17.31835938 445.43359375 C18.71773825 442.81697737 20.40858145 440.65796099 22.23632812 438.3203125 C29.49192043 428.40830116 34.75452439 417.52962432 35.54882812 405.1328125 C35.62037109 404.03211426 35.62037109 404.03211426 35.69335938 402.90917969 C36.65933196 385.66656898 33.06020033 372.77765896 23.54882812 358.1328125 C23.16210938 357.47925781 22.77539062 356.82570313 22.37695312 356.15234375 C18.65717803 350.26269986 13.04221185 346.27782022 7.54882812 342.1328125 C6.618125 341.41480469 5.68742188 340.69679688 4.72851562 339.95703125 C-8.29250342 330.53719322 -22.83636017 327.9546354 -38.63867188 327.9453125 C-39.71181641 327.93306641 -40.78496094 327.92082031 -41.890625 327.90820312 C-53.83255624 327.88652993 -63.65774444 330.04936449 -74.45117188 335.1328125 C-75.34578125 335.54144531 -76.24039063 335.95007813 -77.16210938 336.37109375 C-95.68431022 345.57787687 -110.7010816 362.68093944 -117.45117188 382.1328125 C-117.78117187 383.1228125 -118.11117188 384.1128125 -118.45117188 385.1328125 C-119.11117188 385.1328125 -119.77117187 385.1328125 -120.45117188 385.1328125 C-120.50015625 385.72449219 -120.54914063 386.31617188 -120.59960938 386.92578125 C-120.674375 387.71597656 -120.74914062 388.50617188 -120.82617188 389.3203125 C-120.89578125 390.09761719 -120.96539062 390.87492187 -121.03710938 391.67578125 C-121.49167223 394.37314005 -122.4374401 396.59848306 -123.45117188 399.1328125 C-129.00008028 429.54711234 -122.58248747 459.01038647 -105.85351562 484.57421875 C-100.10238043 492.50405697 -93.08909665 501.01865118 -85.13867188 506.8203125 C-84.58179688 507.2534375 -84.02492188 507.6865625 -83.45117188 508.1328125 C-83.45117188 508.7928125 -83.45117188 509.4528125 -83.45117188 510.1328125 C-82.71511719 510.39835937 -81.9790625 510.66390625 -81.22070312 510.9375 C-78.48090137 512.11998143 -76.50168703 513.45302295 -74.13867188 515.2578125 C-69.7214051 518.42340998 -65.17666201 520.96461347 -60.32617188 523.3828125 C-59.66963623 523.71168457 -59.01310059 524.04055664 -58.33666992 524.37939453 C-51.23292912 527.85367446 -44.14096829 530.32863907 -36.45117188 532.1328125 C-35.11697372 532.47450534 -33.78363307 532.81956398 -32.45117188 533.16796875 C-31.79117188 533.33748047 -31.13117188 533.50699219 -30.45117188 533.68164062 C-29.11689233 534.02433156 -27.78355031 534.37069356 -26.45117188 534.72070312 C-9.15170082 539.13004096 10.34558525 538.61432955 27.54882812 534.1328125 C28.19722656 533.96652344 28.845625 533.80023437 29.51367188 533.62890625 C55.4448514 526.80491164 76.20247831 511.89183008 90.54882812 489.1328125 C92.85914922 484.93833585 94.77238601 480.57766555 96.54882812 476.1328125 C97.20882812 476.1328125 97.86882812 476.1328125 98.54882812 476.1328125 C98.67 475.46894531 98.79117188 474.80507813 98.91601562 474.12109375 C99.16738281 472.79658203 99.16738281 472.79658203 99.42382812 471.4453125 C99.66746094 470.14013672 99.66746094 470.14013672 99.91601562 468.80859375 C100.54882812 466.1328125 100.54882812 466.1328125 101.49023438 463.90625 C103.03701632 459.85379546 103.78048549 455.69429862 104.61132812 451.4453125 C104.78470703 450.59775391 104.95808594 449.75019531 105.13671875 448.87695312 C109.08922931 428.96296316 109.74563814 406.86014611 104.54882812 387.1328125 C104.35015137 386.37597168 104.15147461 385.61913086 103.94677734 384.83935547 C97.79744617 362.21810798 86.66908266 343.07413263 70.54882812 326.1328125 C69.37507788 324.76385433 68.20777743 323.38932349 67.04882812 322.0078125 C63.68558087 318.14047198 59.96371389 314.77270478 56.11523438 311.39453125 C54.51647258 309.98557679 52.93693244 308.55411188 51.38867188 307.08984375 C43.39338928 299.57399609 34.50056576 293.21102419 25.68017578 286.70751953 C24.97683105 286.18786621 24.27348633 285.66821289 23.54882812 285.1328125 C22.42226807 284.35139893 22.42226807 284.35139893 21.27294922 283.55419922 C20.70398926 283.0851416 20.1350293 282.61608398 19.54882812 282.1328125 C19.54882812 281.4728125 19.54882812 280.8128125 19.54882812 280.1328125 C18.84757813 279.8853125 18.14632812 279.6378125 17.42382812 279.3828125 C14.15368265 277.96101012 11.40770613 276.26034962 8.54882812 274.1328125 C8.54882812 273.4728125 8.54882812 272.8128125 8.54882812 272.1328125 C7.83597656 271.88402344 7.123125 271.63523437 6.38867188 271.37890625 C3.23105612 269.99337747 0.84696417 268.29351879 -1.88867188 266.1953125 C-2.93667969 265.39351563 -3.9846875 264.59171875 -5.06445312 263.765625 C-6.19423295 262.88914571 -7.32311561 262.01150896 -8.45117188 261.1328125 C-9.0317334 260.68131836 -9.61229492 260.22982422 -10.21044922 259.76464844 C-13.76634864 256.99429811 -17.30786118 254.20627044 -20.84082031 251.40673828 C-22.29339306 250.25762904 -23.75089502 249.11475741 -25.20898438 247.97265625 C-34.78995539 240.41900669 -43.50192874 232.17235996 -52.13867188 223.5703125 C-52.9468335 222.76682373 -53.75499512 221.96333496 -54.58764648 221.13549805 C-62.34885326 213.35355005 -69.09958082 205.60109077 -75.01367188 196.3203125 C-75.57940918 195.44028564 -76.14514648 194.56025879 -76.72802734 193.65356445 C-81.97259906 185.43322548 -86.79277219 177.19170697 -90.45117188 168.1328125 C-90.89847656 167.17503906 -91.34578125 166.21726562 -91.80664062 165.23046875 C-94.14381493 159.78112835 -95.5459737 154.03586205 -97.07617188 148.3203125 C-97.388125 147.19560547 -97.70007813 146.07089844 -98.02148438 144.91210938 C-101.12875053 133.38709848 -101.61314508 122.66318312 -101.57617188 110.7578125 C-101.58003906 109.5203125 -101.58390625 108.2828125 -101.58789062 107.0078125 C-101.57666393 96.34245312 -101.21382488 85.84618065 -98.70117188 75.4453125 C-98.44219116 74.35597412 -98.44219116 74.35597412 -98.17797852 73.24462891 C-96.94615792 68.37519897 -95.29046161 64.22449808 -92.59179688 59.95703125 C-91.26842681 57.9626594 -91.26842681 57.9626594 -90.13867188 54.8203125 C-87.83481632 49.16782969 -84.16940207 43.94046046 -80.45117188 39.1328125 C-79.79117188 39.1328125 -79.13117187 39.1328125 -78.45117188 39.1328125 C-78.1959375 38.55273438 -77.94070313 37.97265625 -77.67773438 37.375 C-67.45290491 18.68375124 -39.96467164 8.39813134 -20.70166016 2.73583984 C-13.89309744 0.91145821 -7.01367344 0.38002374 0 0 Z " fill="#030303" transform="translate(604.451171875,216.8671875)"/>
<path d="M0 0 C1.19109375 0.46535156 2.3821875 0.93070313 3.609375 1.41015625 C7.13221004 2.82838679 10.60305899 4.30152949 14 6 C14 6.66 14 7.32 14 8 C15.04027344 8.32097656 15.04027344 8.32097656 16.1015625 8.6484375 C19.79073882 10.36872727 22.46113268 12.84929937 25.375 15.625 C25.94935791 16.16552002 26.52371582 16.70604004 27.11547852 17.26293945 C43.28962006 32.64016732 53.14866051 50.37500823 54 73 C54.02723145 73.6801416 54.05446289 74.3602832 54.08251953 75.06103516 C54.96076599 100.044109 47.34755094 120.24327815 30.390625 138.61328125 C14.9787234 154 14.9787234 154 8 154 C8 154.66 8 155.32 8 156 C6.68 156 5.36 156 4 156 C5.39750048 152.84164893 7.05198234 150.67727175 9.5 148.25 C10.1084375 147.63640625 10.716875 147.0228125 11.34375 146.390625 C13 145 13 145 15 145 C15.25394531 144.43925781 15.50789062 143.87851562 15.76953125 143.30078125 C17.16891013 140.68416487 18.85975333 138.52514849 20.6875 136.1875 C27.9430923 126.27548866 33.20569627 115.39681182 34 103 C34.04769531 102.26620117 34.09539062 101.53240234 34.14453125 100.77636719 C35.11050384 83.53375648 31.51137221 70.64484646 22 56 C21.61328125 55.34644531 21.2265625 54.69289063 20.828125 54.01953125 C17.10834991 48.12988736 11.49338373 44.14500772 6 40 C5.06929687 39.28199219 4.13859375 38.56398438 3.1796875 37.82421875 C-9.84133154 28.40438072 -24.38518829 25.8218229 -40.1875 25.8125 C-41.26064453 25.80025391 -42.33378906 25.78800781 -43.43945312 25.77539062 C-55.38138436 25.75371743 -65.20657257 27.91655199 -76 33 C-76.89460937 33.40863281 -77.78921875 33.81726563 -78.7109375 34.23828125 C-97.23313835 43.44506437 -112.24990972 60.54812694 -119 80 C-119.33 80.99 -119.66 81.98 -120 83 C-120.66 83 -121.32 83 -122 83 C-122.04898437 83.59167969 -122.09796875 84.18335938 -122.1484375 84.79296875 C-122.22320312 85.58316406 -122.29796875 86.37335938 -122.375 87.1875 C-122.47941406 88.35345703 -122.47941406 88.35345703 -122.5859375 89.54296875 C-123.04050035 92.24032755 -123.98626823 94.46567056 -125 97 C-130.5489084 127.41429984 -124.13131559 156.87757397 -107.40234375 182.44140625 C-101.65120856 190.37124447 -94.63792477 198.88583868 -86.6875 204.6875 C-86.130625 205.120625 -85.57375 205.55375 -85 206 C-85 206.66 -85 207.32 -85 208 C-84.26394531 208.26554688 -83.52789063 208.53109375 -82.76953125 208.8046875 C-80.0297295 209.98716893 -78.05051515 211.32021045 -75.6875 213.125 C-71.27023323 216.29059748 -66.72549014 218.83180097 -61.875 221.25 C-61.21846436 221.57887207 -60.56192871 221.90774414 -59.88549805 222.24658203 C-55.35004793 224.46476872 -50.74887366 226.28659792 -46 228 C-46.33 229.65 -46.66 231.3 -47 233 C-47.66 233 -48.32 233 -49 233 C-48.67 233.99 -48.34 234.98 -48 236 C-73.08396823 232.4539033 -97.07507822 212.6033283 -112.05493164 192.91503906 C-126.14580205 173.55821534 -135.37722622 149.34048673 -135.94433594 125.3046875 C-135.98661168 123.55432322 -136.04479781 121.80433462 -136.11035156 120.0546875 C-137.21724789 88.57790443 -131.35359452 55.48848393 -110 31 C-109.31164062 30.19175781 -108.62328125 29.38351562 -107.9140625 28.55078125 C-81.9834974 -1.15563807 -37.68434278 -15.58915077 0 0 Z " fill="#070707" transform="translate(606,519)"/>
<path d="M0 0 C0.2990625 0.61488281 0.598125 1.22976563 0.90625 1.86328125 C2.46226882 4.90307516 3.89692249 7.44846124 7 9 C5.2441446 15.86639387 3.18580784 22.58824522 0.90966797 29.30004883 C-0.48776658 33.4300698 -1.80332671 37.57589013 -3.0625 41.75 C-4.53257662 46.59121618 -6.18988199 51.32456808 -7.95507812 56.06469727 C-8.96904176 58.91303483 -9.85927565 61.7707619 -10.72265625 64.66796875 C-13.65912054 74.2872333 -17.00036756 83.76824317 -20.28833008 93.27172852 C-23.62855705 102.9359387 -26.85880659 112.6165953 -29.8762207 122.38647461 C-33.15303714 132.92311596 -36.81839587 143.33655016 -40.40002441 153.77255249 C-45.02202209 167.24441782 -49.61621091 180.72408948 -54.08984375 194.24609375 C-55.50234358 198.51503203 -56.93658913 202.77620067 -58.37890625 207.03515625 C-58.78399414 208.2363208 -59.18908203 209.43748535 -59.60644531 210.67504883 C-60.38212237 212.97428752 -61.16114668 215.27240113 -61.94433594 217.5690918 C-63.68980628 222.75833867 -65.25977734 227.90287502 -66.51171875 233.234375 C-67.57660146 237.67217132 -69.01674692 241.57084045 -70.96484375 245.68554688 C-73.00150448 250.23921285 -74.45384463 255.01245986 -76 259.75 C-76.34740234 260.80316406 -76.69480469 261.85632813 -77.05273438 262.94140625 C-79.45986637 270.26667471 -81.80546839 277.60789354 -84 285 C-84.99 283.68 -85.98 282.36 -87 281 C-88.485 282.98 -88.485 282.98 -90 285 C-90.33 284.34 -90.66 283.68 -91 283 C-91.99 283.66 -92.98 284.32 -94 285 C-93.58998798 283.39411957 -93.17146514 281.79041264 -92.75 280.1875 C-92.51796875 279.29417969 -92.2859375 278.40085937 -92.046875 277.48046875 C-91.19731424 274.65599624 -90.25883261 271.93815802 -89.234375 269.17578125 C-86.70310645 262.30179785 -84.48815027 255.33069403 -82.25491333 248.3560791 C-77.39546184 233.18976578 -72.3581463 218.09450127 -67.09765625 203.0625 C-64.43062771 195.40532884 -61.95803847 187.7263152 -59.75819397 179.92047119 C-58.58102062 175.78552348 -57.21109005 171.77988848 -55.67048645 167.7661438 C-54.91760777 165.78296872 -54.26026781 163.78483567 -53.6484375 161.75390625 C-53.43703125 161.06232422 -53.225625 160.37074219 -53.0078125 159.65820312 C-52.57771795 158.23384681 -52.14804569 156.80936292 -51.71875 155.38476562 C-50.10271046 150.10271046 -50.10271046 150.10271046 -49 149 C-48.896875 148.030625 -48.79375 147.06125 -48.6875 146.0625 C-48.15514476 142.06176969 -46.77592067 138.67504421 -45.23046875 134.96484375 C-40.93270723 124.60928504 -37.34153186 114.13309869 -34.18676758 103.37817383 C-31.97766544 95.85035095 -29.53006672 88.42579149 -27 81 C-26.49853253 79.50048995 -25.99832931 78.00055586 -25.5 76.5 C-25.27054688 75.81292969 -25.04109375 75.12585938 -24.8046875 74.41796875 C-24.16109229 72.48405886 -23.52131412 70.54887882 -22.8828125 68.61328125 C-22.46355014 67.34635136 -22.04427925 66.0794243 -21.625 64.8125 C-21.05652344 63.08966797 -21.05652344 63.08966797 -20.4765625 61.33203125 C-19.26386082 57.72239756 -17.97718267 54.14138639 -16.6875 50.55859375 C-14.05225183 43.20369544 -11.5518149 35.80787572 -9.08789062 28.39404297 C-8.37074319 26.2371975 -7.65035734 24.08145199 -6.9296875 21.92578125 C-4.50372035 14.65100524 -2.13029132 7.36809224 0 0 Z " fill="#111111" transform="translate(1033,320)"/>
<path d="M0 0 C4.875 1.75 4.875 1.75 6 4 C7.32 3.01 8.64 2.02 10 1 C10.20753906 1.49886719 10.41507812 1.99773438 10.62890625 2.51171875 C17.86284213 19.37072413 28.19746556 36.65761 43.3125 47.6875 C43.869375 48.120625 44.42625 48.55375 45 49 C45 49.66 45 50.32 45 51 C45.73605469 51.26554688 46.47210937 51.53109375 47.23046875 51.8046875 C49.9702705 52.98716893 51.94948485 54.32021045 54.3125 56.125 C58.72976677 59.29059748 63.27450986 61.83180097 68.125 64.25 C68.78153564 64.57887207 69.43807129 64.90774414 70.11450195 65.24658203 C74.64995207 67.46476872 79.25112634 69.28659792 84 71 C83.67 72.65 83.34 74.3 83 76 C82.34 76 81.68 76 81 76 C81.33 76.99 81.66 77.98 82 79 C56.91906026 75.45433144 32.92009059 55.60386865 17.94482422 35.9140625 C12.27550007 28.12892456 8.02656655 19.72261625 4 11 C3.54367187 10.02933594 3.08734375 9.05867187 2.6171875 8.05859375 C0 2.35751748 0 2.35751748 0 0 Z " fill="#111111" transform="translate(476,676)"/>
<path d="M0 0 C0.66 0 1.32 0 2 0 C1.67 89.43 1.34 178.86 1 271 C-4 264.33333333 -4 264.33333333 -4 260 C-3.34 260 -2.68 260 -2 260 C-0.83564696 257.67129392 -0.87014044 256.31851354 -0.8613348 253.72462273 C-0.85586036 252.82192457 -0.85038591 251.91922642 -0.84474558 250.98917377 C-0.84376747 249.99113479 -0.84278936 248.99309582 -0.84178162 247.96481323 C-0.83684364 246.90954787 -0.83190566 245.85428252 -0.82681805 244.76703942 C-0.81137971 241.20781309 -0.80306533 237.64860489 -0.79467773 234.08935547 C-0.78510419 231.54721923 -0.77509442 229.00508459 -0.76467896 226.46295166 C-0.74319291 220.97797049 -0.72475965 215.49299238 -0.70907402 210.00799179 C-0.68638982 202.07754208 -0.658245 194.1471192 -0.62875474 186.21669222 C-0.58106102 173.35101629 -0.53780167 160.48532939 -0.49731445 147.61962891 C-0.45796858 135.11962023 -0.41654454 122.6196213 -0.37231445 110.11962891 C-0.36959018 109.34950949 -0.36686591 108.57939008 -0.36405908 107.78593372 C-0.35037975 103.92258448 -0.33665945 100.05923539 -0.32291877 96.19588637 C-0.20892604 64.13061101 -0.10212288 32.06531544 0 0 Z " fill="#444444" transform="translate(756,249)"/>
<path d="M0 0 C2.67550292 2.67550292 2.83209389 4.94879894 3.625 8.625 C4.01558594 10.40777344 4.01558594 10.40777344 4.4140625 12.2265625 C4.70410156 13.59941406 4.70410156 13.59941406 5 15 C4.01 14.67 3.02 14.34 2 14 C2.00184359 15.28989964 2.00368717 16.57979927 2.00558662 17.90878677 C2.0488823 48.51368235 2.081871 79.11856968 2.10213066 109.72348852 C2.10463214 113.48867339 2.10722077 117.2538582 2.10986328 121.01904297 C2.1103879 121.76863803 2.11091252 122.5182331 2.11145304 123.29054317 C2.12016073 135.43522089 2.1359327 147.57987972 2.15430559 159.72454622 C2.17299453 172.18182106 2.18411459 184.63908599 2.18817699 197.09637427 C2.19092414 204.78603606 2.19960747 212.47564444 2.21583293 220.16528979 C2.2276333 226.05713397 2.22891389 231.9489506 2.22621536 237.84080696 C2.22676722 240.26119122 2.23076699 242.68157744 2.23841095 245.10194969 C2.24831317 248.398059 2.24598611 251.69393698 2.24050903 254.99005127 C2.24633472 255.95502793 2.2521604 256.92000458 2.25816262 257.91422296 C2.25418052 258.79651944 2.25019842 259.67881592 2.24609566 260.58784866 C2.2468551 261.34880821 2.24761454 262.10976775 2.24839699 262.89378667 C2 265 2 265 0 269 C0 180.23 0 91.46 0 0 Z " fill="#EDEDED" transform="translate(757,251)"/>
<path d="M0 0 C1 2 1 2 0.5625 4.25 C-1.4358839 7.76715567 -3.95680639 9.31211229 -7.3203125 11.47265625 C-7.87460937 11.97667969 -8.42890625 12.48070312 -9 13 C-9 14.32 -9 15.64 -9 17 C-10.32 17.33 -11.64 17.66 -13 18 C-13 18.66 -13 19.32 -13 20 C-14.32 20 -15.64 20 -17 20 C-15.60249952 16.84164893 -13.94801766 14.67727175 -11.5 12.25 C-10.8915625 11.63640625 -10.283125 11.0228125 -9.65625 10.390625 C-8 9 -8 9 -6 9 C-5.7525 8.443125 -5.505 7.88625 -5.25 7.3125 C-3.78393985 4.60028873 -1.97010529 2.36412635 0 0 Z " fill="#383838" transform="translate(627,655)"/>
<path d="M0 0 C1.95803507 -0.05389087 3.91648909 -0.09274217 5.875 -0.125 C7.51082031 -0.15980469 7.51082031 -0.15980469 9.1796875 -0.1953125 C12 0 12 0 14 2 C13.625 4.625 13.625 4.625 13 7 C11.39566191 6.52140759 9.79153584 6.04210442 8.1875 5.5625 C7.29417969 5.29566406 6.40085937 5.02882812 5.48046875 4.75390625 C3.64526945 4.19612127 1.81966274 3.60655425 0 3 C0 2.01 0 1.02 0 0 Z " fill="#1B1B1B" transform="translate(721,218)"/>
<path d="M0 0 C-0.78375 0.4125 -1.5675 0.825 -2.375 1.25 C-5.05891656 3.0392777 -5.88098949 4.04988139 -7 7 C-8.32 7 -9.64 7 -11 7 C-13.2236068 8.9254644 -13.2236068 8.9254644 -14 12 C-16.0625 12.6875 -16.0625 12.6875 -18 13 C-16.64527694 7.41176736 -12.41886827 4.30998246 -8 1 C-4.84961475 -0.83094345 -3.48493967 -1.24462131 0 0 Z " fill="#CDCDCD" transform="translate(1156,224)"/>
<path d="M0 0 C1.32 0.33 2.64 0.66 4 1 C3.8125 3.8125 3.8125 3.8125 3 7 C0.5 8.625 0.5 8.625 -2 10 C-2.87822312 12.08533633 -2.87822312 12.08533633 -3 14 C-4.32 13.67 -5.64 13.34 -7 13 C-3.535 6.565 -3.535 6.565 0 0 Z " fill="#1E1E1E" transform="translate(635,641)"/>
<path d="M0 0 C0.99 0.99 1.98 1.98 3 3 C2.34 4.32 1.68 5.64 1 7 C0.34 7 -0.32 7 -1 7 C-1.33 8.65 -1.66 10.3 -2 12 C-9.59 12 -17.18 12 -25 12 C-25 11.67 -25 11.34 -25 11 C-17.74 11 -10.48 11 -3 11 C-2.67 9.35 -2.34 7.7 -2 6 C-1.35610218 3.99255385 -0.69437747 1.99054876 0 0 Z " fill="#C1C1C1" transform="translate(921,685)"/>
<path d="M0 0 C1.875 0.1875 1.875 0.1875 4 1 C5.375 3.375 5.375 3.375 6 6 C5.01 7.485 5.01 7.485 4 9 C4.66 9 5.32 9 6 9 C6 9.66 6 10.32 6 11 C3.3668037 10.63680051 2.15568678 10.14494976 0.1875 8.3125 C-1.40689803 5.20761963 -0.82845843 3.31383374 0 0 Z " fill="#070707" transform="translate(527,732)"/>
<path d="M0 0 C0 1.32 0 2.64 0 4 C-4.29 4.66 -8.58 5.32 -13 6 C-13 4 -13 4 -11 2 C-7.41855608 -0.38762928 -4.21160366 -0.16198476 0 0 Z " fill="#101010" transform="translate(1163,218)"/>
<path d="M0 0 C1.98 0.99 3.96 1.98 6 3 C5.34 5.97 4.68 8.94 4 12 C2.02 11.34 0.04 10.68 -2 10 C-1.01 9.67 -0.02 9.34 1 9 C1 8.34 1 7.68 1 7 C0.34 7 -0.32 7 -1 7 C-0.67 4.69 -0.34 2.38 0 0 Z " fill="#171717" transform="translate(532,734)"/>
<path d="M0 0 C-3.96 2.64 -7.92 5.28 -12 8 C-12.66 7.67 -13.32 7.34 -14 7 C-12.62697042 3.63820077 -11.38114791 2.2787119 -8.125 0.6875 C-7.44695313 0.34074219 -6.76890625 -0.00601563 -6.0703125 -0.36328125 C-4 -1 -4 -1 0 0 Z " fill="#111111" transform="translate(631,663)"/>
<path d="M0 0 C4.875 1.75 4.875 1.75 6 4 C7.32 3.01 8.64 2.02 10 1 C10.33 2.98 10.66 4.96 11 7 C10.01 7 9.02 7 8 7 C6.31763529 7.62599617 4.6476038 8.28752268 3 9 C2.01 6.03 1.02 3.06 0 0 Z " fill="#181818" transform="translate(476,676)"/>
<path d="M0 0 C0.99 0.33 1.98 0.66 3 1 C1.7260411 3.03833424 0.38938077 5.03852126 -1 7 C-1.66 7 -2.32 7 -3 7 C-3.28875 7.61875 -3.5775 8.2375 -3.875 8.875 C-5 11 -5 11 -7 13 C-7.3077917 9.86162389 -7.27813784 8.40656372 -5.46875 5.76171875 C-4.8190625 5.07722656 -4.169375 4.39273438 -3.5 3.6875 C-2.8503125 2.99011719 -2.200625 2.29273438 -1.53125 1.57421875 C-1.0259375 1.05472656 -0.520625 0.53523437 0 0 Z " fill="#EBEBEB" transform="translate(527,249)"/>
<path d="M0 0 C0.66 0.33 1.32 0.66 2 1 C-3.21126761 7.33802817 -3.21126761 7.33802817 -6 10 C-6.556875 10.556875 -7.11375 11.11375 -7.6875 11.6875 C-8.120625 12.120625 -8.55375 12.55375 -9 13 C-9.99 12.34 -10.98 11.68 -12 11 C-8.04 7.37 -4.08 3.74 0 0 Z " fill="#2B2B2B" transform="translate(542,239)"/>
<path d="M0 0 C1.32 0.66 2.64 1.32 4 2 C4 2.99 4 3.98 4 5 C4.94978897 7.15028304 4.94978897 7.15028304 6 9 C1.89041233 7.54955729 -1.43258745 5.48889248 -5 3 C-4.34 2.67 -3.68 2.34 -3 2 C-2.34 2.33 -1.68 2.66 -1 3 C-0.67 2.01 -0.34 1.02 0 0 Z " fill="#E0E0E0" transform="translate(532,728)"/>
<path d="M0 0 C1.67542976 0.28604898 3.34385343 0.61781233 5 1 C5 3.31 5 5.62 5 8 C2.69 7.01 0.38 6.02 -2 5 C-1.125 1.125 -1.125 1.125 0 0 Z " fill="#040404" transform="translate(971,514)"/>
<path d="M0 0 C0.66 0.99 1.32 1.98 2 3 C1.26708288 4.1774734 0.51296199 5.34176854 -0.25 6.5 C-0.66765625 7.1496875 -1.0853125 7.799375 -1.515625 8.46875 C-2.00546875 8.9740625 -2.4953125 9.479375 -3 10 C-4.32 10 -5.64 10 -7 10 C-5.33248852 6.05860922 -2.77289351 3.2107188 0 0 Z " fill="#CFCFCF" transform="translate(557,245)"/>
<path d="M0 0 C0 3.80345877 -1.13786331 4.77701015 -3.5 7.6875 C-4.1496875 8.49574219 -4.799375 9.30398438 -5.46875 10.13671875 C-5.9740625 10.75160156 -6.479375 11.36648438 -7 12 C-7.99 11.67 -8.98 11.34 -10 11 C-6.79239749 7.19364503 -3.59253891 3.45436433 0 0 Z " fill="#D5D5D5" transform="translate(717,716)"/>
<path d="M0 0 C2.00293347 3.00440021 2.49271626 4.70993945 3.125 8.1875 C3.29257812 9.08855469 3.46015625 9.98960937 3.6328125 10.91796875 C3.75398437 11.60503906 3.87515625 12.29210937 4 13 C3.01 12.67 2.02 12.34 1 12 C0.67 12.66 0.34 13.32 0 14 C-0.99 14.495 -0.99 14.495 -2 15 C-1.12107623 8.47085202 -1.12107623 8.47085202 -0.4375 5.8125 C0.15642702 3.66270423 0.15642702 3.66270423 0 0 Z " fill="#DCDCDC" transform="translate(826,472)"/>
<path d="M0 0 C-1.31224548 3.93673644 -2.91910327 6.22719294 -6 9 C-6.66 7.35 -7.32 5.7 -8 4 C-6.68 3.67 -5.36 3.34 -4 3 C-4 2.34 -4 1.68 -4 1 C-2 0 -2 0 0 0 Z " fill="#141414" transform="translate(649,640)"/>
<path d="M0 0 C0.66 0.33 1.32 0.66 2 1 C1.67 1.598125 1.34 2.19625 1 2.8125 C-0.20787988 5.05386471 -0.20787988 5.05386471 0 8 C-5.75 9.125 -5.75 9.125 -8 8 C-5.36 5.36 -2.72 2.72 0 0 Z " fill="#242424" transform="translate(510,535)"/>
<path d="M0 0 C0.66 0.99 1.32 1.98 2 3 C1.19185349 4.33597652 0.37836819 5.668725 -0.4375 7 C-1.11619141 8.11375 -1.11619141 8.11375 -1.80859375 9.25 C-2.20175781 9.8275 -2.59492188 10.405 -3 11 C-3.33 11 -3.66 11 -4 11 C-4.36630156 7.06225823 -4.30233203 5.43460229 -2 2.125 C-1.34 1.42375 -0.68 0.7225 0 0 Z " fill="#161616" transform="translate(494,578)"/>
<path d="M0 0 C2.67550292 2.67550292 2.83209389 4.94879894 3.625 8.625 C4.01558594 10.40777344 4.01558594 10.40777344 4.4140625 12.2265625 C4.70410156 13.59941406 4.70410156 13.59941406 5 15 C3.68 14.67 2.36 14.34 1 14 C1.020625 12.80375 1.04125 11.6075 1.0625 10.375 C1.06882571 6.81995131 0.69888875 3.49444376 0 0 Z " fill="#CBCBCB" transform="translate(757,251)"/>
<path d="M0 0 C0.66 1.32 1.32 2.64 2 4 C0.35 5.65 -1.3 7.3 -3 9 C-3.99 8.67 -4.98 8.34 -6 8 C-4.02 5.36 -2.04 2.72 0 0 Z " fill="#2A2A2A" transform="translate(690,713)"/>
<path d="M0 0 C0.99 0.495 0.99 0.495 2 1 C2 1.99 2 2.98 2 4 C2.99 3.67 3.98 3.34 5 3 C5 4.32 5 5.64 5 7 C5.66 7 6.32 7 7 7 C6.34 8.98 5.68 10.96 5 13 C3.49439503 10.14589666 2.36783204 7.31875358 1.375 4.25 C0.98441406 3.05117188 0.98441406 3.05117188 0.5859375 1.828125 C0.39257812 1.22484375 0.19921875 0.6215625 0 0 Z " fill="#2A2A2A" transform="translate(879,643)"/>
<path d="M0 0 C2.31 0.66 4.62 1.32 7 2 C7.77321882 4.98241547 8.41196203 7.97580475 9 11 C5.40521193 7.67149253 2.77635232 4.01028669 0 0 Z " fill="#DCDCDC" transform="translate(637,540)"/>
<path d="M0 0 C1.5 1.25 1.5 1.25 3 3 C3 7 3 7 1.6875 8.484375 C0.125 9.65625 -1.4375 10.828125 -3 12 C-2.40075776 7.80530429 -1.42500059 3.99000166 0 0 Z " fill="#D8D8D8" transform="translate(546,260)"/>
<path d="M0 0 C1.19156292 4.76625167 0.3415946 5.87879351 -2 10 C-2.66 9.34 -3.32 8.68 -4 8 C-4.33 8.66 -4.66 9.32 -5 10 C-5.66 9.67 -6.32 9.34 -7 9 C-4.69 6.03 -2.38 3.06 0 0 Z " fill="#CDCDCD" transform="translate(725,706)"/>
<path d="M0 0 C0 2.66666667 0 5.33333333 0 8 C-1.8125 8.625 -1.8125 8.625 -4 9 C-4.99 8.34 -5.98 7.68 -7 7 C-4.69 4.69 -2.38 2.38 0 0 Z " fill="#E5E5E5" transform="translate(638,655)"/>
<path d="M0 0 C2.79651501 1.46817038 3.43411431 2.40553901 4.5 5.3125 C3.18 5.6425 1.86 5.9725 0.5 6.3125 C-1.15 4.3325 -2.8 2.3525 -4.5 0.3125 C-2.5 -0.6875 -2.5 -0.6875 0 0 Z " fill="#E1E1E1" transform="translate(696.5,458.6875)"/>
<path d="M0 0 C3 1 3 1 4 3 C3.34 3 2.68 3 2 3 C2.33 3.99 2.66 4.98 3 6 C-2.75 5.25 -2.75 5.25 -5 3 C-2.6875 1.4375 -2.6875 1.4375 0 0 Z " fill="#181818" transform="translate(555,749)"/>
<path d="M0 0 C2.125 0.375 2.125 0.375 4 1 C4 1.66 4 2.32 4 3 C2.68 3.33 1.36 3.66 0 4 C0 4.66 0 5.32 0 6 C-1.32 6 -2.64 6 -4 6 C-2.84826645 3.53199953 -1.95216435 1.95216435 0 0 Z " fill="#2D2D2D" transform="translate(614,669)"/>
<path d="M0 0 C1.32 0 2.64 0 4 0 C4.33 0.66 4.66 1.32 5 2 C4.06553465 4.03144641 3.06775224 6.03533587 2 8 C1.34 8 0.68 8 0 8 C-0.98120464 4.94736336 -0.98120464 3.05263664 0 0 Z " fill="#F7F7F7" transform="translate(1138,237)"/>
<path d="M0 0 C0 1.65 0 3.3 0 5 C-5.94 3.515 -5.94 3.515 -12 2 C-4 0 -4 0 0 0 Z " fill="#C9C9C9" transform="translate(660,220)"/>
<path d="M0 0 C0.66 0 1.32 0 2 0 C2 0.66 2 1.32 2 2 C1.34 2 0.68 2 0 2 C0 1.34 0 0.68 0 0 Z M-3 0 C-2.67 0.66 -2.34 1.32 -2 2 C0.52733235 2.65555119 0.52733235 2.65555119 3 3 C3 4.32 3 5.64 3 7 C-0.91402949 5.73058503 -2.79072873 4.48832306 -5 1 C-4.34 0.67 -3.68 0.34 -3 0 Z " fill="#D9D9D9" transform="translate(1147,681)"/>
<path d="M0 0 C1.32 1.32 2.64 2.64 4 4 C2.68 5.32 1.36 6.64 0 8 C-0.33 6.68 -0.66 5.36 -1 4 C-1.66 4 -2.32 4 -3 4 C-3 3.34 -3 2.68 -3 2 C-2.34 2 -1.68 2 -1 2 C-0.67 1.34 -0.34 0.68 0 0 Z " fill="#EDEDED" transform="translate(500,537)"/>
<path d="M0 0 C0.99 0.99 1.98 1.98 3 3 C2.34 4.32 1.68 5.64 1 7 C0.01 7 -0.98 7 -2 7 C-2.6875 5.1875 -2.6875 5.1875 -3 3 C-1.5625 1.25 -1.5625 1.25 0 0 Z " fill="#161616" transform="translate(724,496)"/>
<path d="M0 0 C1.6875 1.5 1.6875 1.5 3 3 C2.34 3 1.68 3 1 3 C0.67 3.99 0.34 4.98 0 6 C-1.98 5.01 -3.96 4.02 -6 3 C-3.375 0 -3.375 0 0 0 Z " fill="#E0E0E0" transform="translate(699,240)"/>
<path d="M0 0 C2.64 0 5.28 0 8 0 C7.67 1.32 7.34 2.64 7 4 C4.69 3.67 2.38 3.34 0 3 C0 2.01 0 1.02 0 0 Z " fill="#060606" transform="translate(721,218)"/>
<path d="M0 0 C0.66 0.33 1.32 0.66 2 1 C2 3.64 2 6.28 2 9 C1.34 9 0.68 9 0 9 C-1.4606285 6.35261084 -2 5.10551666 -2 2 C-1.34 2 -0.68 2 0 2 C0 1.34 0 0.68 0 0 Z " fill="#262626" transform="translate(754,507)"/>
<path d="M0 0 C1.33597652 0.80814651 2.668725 1.62163181 4 2.4375 C5.11375 3.11619141 5.11375 3.11619141 6.25 3.80859375 C6.8275 4.20175781 7.405 4.59492188 8 5 C8 5.33 8 5.66 8 6 C5.36 6.33 2.72 6.66 0 7 C0 4.69 0 2.38 0 0 Z " fill="#191919" transform="translate(627,408)"/>
<path d="M0 0 C0 2.66666667 0 5.33333333 0 8 C-4 8 -4 8 -7 6 C-4.69 4.02 -2.38 2.04 0 0 Z " fill="#212121" transform="translate(678,727)"/>
<path d="M0 0 C0 1.32 0 2.64 0 4 C-5.75 6 -5.75 6 -8 6 C-8 5.01 -8 4.02 -8 3 C-6.68 3 -5.36 3 -4 3 C-4 2.34 -4 1.68 -4 1 C-2 0 -2 0 0 0 Z " fill="#E3E3E3" transform="translate(618,672)"/>
<path d="M0 0 C0.66 0.33 1.32 0.66 2 1 C1.01 2.98 0.02 4.96 -1 7 C-3.97 6.505 -3.97 6.505 -7 6 C-4.74259377 3.66475218 -2.7194239 1.81294927 0 0 Z " fill="#D1D1D1" transform="translate(625,666)"/>
<path d="M0 0 C0.33 0.66 0.66 1.32 1 2 C0.22265625 3.7265625 0.22265625 3.7265625 -0.9375 5.625 C-1.618125 6.73875 -2.29875 7.8525 -3 9 C-4.32 8.67 -5.64 8.34 -7 8 C-4.69 5.36 -2.38 2.72 0 0 Z " fill="#CCCCCC" transform="translate(506,568)"/>
<path d="M0 0 C1.32 0.33 2.64 0.66 4 1 C2.02 3.31 0.04 5.62 -2 8 C-2.66 7.67 -3.32 7.34 -4 7 C-3.34 5.35 -2.68 3.7 -2 2 C-1.34 2 -0.68 2 0 2 C0 1.34 0 0.68 0 0 Z " fill="#E8E8E8" transform="translate(494,548)"/>
<path d="M0 0 C0.66 0.66 1.32 1.32 2 2 C-0.97 4.475 -0.97 4.475 -4 7 C-4.66 6.34 -5.32 5.68 -6 5 C-3.9927092 1.9890638 -3.16115776 1.36983503 0 0 Z " fill="#121212" transform="translate(710,720)"/>
<path d="M0 0 C0.97079451 3.0202496 1.32756618 5.06038917 0 8 C-2.5625 9.75 -2.5625 9.75 -5 11 C-3.55049545 7.2089881 -1.84827434 3.6125362 0 0 Z " fill="#D1D1D1" transform="translate(741,680)"/>
<path d="M0 0 C3.96 1.98 3.96 1.98 8 4 C4 6 4 6 1.75 5.625 C1.1725 5.41875 0.595 5.2125 0 5 C0 3.35 0 1.7 0 0 Z " fill="#EBEBEB" transform="translate(600,551)"/>
<path d="M0 0 C2.31 0 4.62 0 7 0 C7.33 0.99 7.66 1.98 8 3 C7.67 3.66 7.34 4.32 7 5 C4.11562221 3.70700306 2.12780579 2.34058637 0 0 Z " fill="#292929" transform="translate(624,498)"/>
<path d="M0 0 C0.66 1.32 1.32 2.64 2 4 C0.35 5.32 -1.3 6.64 -3 8 C-3.66 7.34 -4.32 6.68 -5 6 C-3.35 4.02 -1.7 2.04 0 0 Z " fill="#0D0D0D" transform="translate(559,238)"/>
<path d="M0 0 C0.99 0 1.98 0 3 0 C1.55746343 3.36591866 -0.33264727 5.51047079 -3 8 C-3 6.35 -3 4.7 -3 3 C-2.34 3 -1.68 3 -1 3 C-0.67 2.01 -0.34 1.02 0 0 Z " fill="#161616" transform="translate(725,702)"/>
<path d="M0 0 C1.98 0.99 1.98 0.99 4 2 C4 3.65 4 5.3 4 7 C4.66 7.33 5.32 7.66 6 8 C5.01 8.33 4.02 8.66 3 9 C1.76078698 6.02588876 0.69941596 3.14737182 0 0 Z " fill="#EEEEEE" transform="translate(723,490)"/>
<path d="M0 0 C2.52588702 2.36292656 3.88820837 3.66462511 5 7 C0.32307692 5.52307692 0.32307692 5.52307692 -1.3125 2.875 C-1.539375 2.25625 -1.76625 1.6375 -2 1 C-1.34 0.67 -0.68 0.34 0 0 Z " fill="#282828" transform="translate(525,736)"/>
<path d="M0 0 C2.31 0.33 4.62 0.66 7 1 C7 1.99 7 2.98 7 4 C3 4 3 4 0 3 C0 2.01 0 1.02 0 0 Z " fill="#080808" transform="translate(1156,691)"/>
<path d="M0 0 C0.99 0.99 1.98 1.98 3 3 C2.34 4.32 1.68 5.64 1 7 C0.34 7 -0.32 7 -1 7 C-1.33 7.99 -1.66 8.98 -2 10 C-1.54177532 6.53058454 -1.10868317 3.32604951 0 0 Z " fill="#DFDFDF" transform="translate(921,685)"/>
<path d="M0 0 C1.65 1.65 3.3 3.3 5 5 C3 7 3 7 0 8 C-1.125 2.25 -1.125 2.25 0 0 Z " fill="#111111" transform="translate(1139,679)"/>
<path d="M0 0 C1.98 1.65 3.96 3.3 6 5 C5.01 5.495 5.01 5.495 4 6 C4 6.66 4 7.32 4 8 C3.34 8 2.68 8 2 8 C1.34 5.36 0.68 2.72 0 0 Z " fill="#D8D8D8" transform="translate(667,534)"/>
<path d="M0 0 C2.64 0.33 5.28 0.66 8 1 C7.67 2.32 7.34 3.64 7 5 C4.11562221 3.70700306 2.12780579 2.34058637 0 0 Z " fill="#DEDEDE" transform="translate(632,411)"/>
<path d="M0 0 C3.465 1.98 3.465 1.98 7 4 C6.01 5.485 6.01 5.485 5 7 C3.0625 6.3125 3.0625 6.3125 1 5 C0.25 2.375 0.25 2.375 0 0 Z " fill="#1B1B1B" transform="translate(617,401)"/>
<path d="M0 0 C1.15866723 4.63466892 0.70010994 7.33260039 0 12 C-0.99 11.67 -1.98 11.34 -3 11 C-2.01 7.37 -1.02 3.74 0 0 Z " fill="#BEBEBE" transform="translate(1047,307)"/>
<path d="M0 0 C1.27875 0.28875 2.5575 0.5775 3.875 0.875 C4.95394531 1.11863281 4.95394531 1.11863281 6.0546875 1.3671875 C8 2 8 2 10 4 C9 5 9 5 6.4375 5.0625 C5.2309375 5.0315625 5.2309375 5.0315625 4 5 C4.33 4.01 4.66 3.02 5 2 C3.68 2.33 2.36 2.66 1 3 C0.67 2.01 0.34 1.02 0 0 Z " fill="#252525" transform="translate(656,224)"/>
<path d="M0 0 C1.67542976 0.28604898 3.34385343 0.61781233 5 1 C4.67 1.99 4.34 2.98 4 4 C1.9375 4.6875 1.9375 4.6875 0 5 C-0.5625 3.0625 -0.5625 3.0625 -1 1 C-0.67 0.67 -0.34 0.34 0 0 Z " fill="#0A0A0A" transform="translate(731,688)"/>
<path d="M0 0 C0.33 0.99 0.66 1.98 1 3 C1.66 3.33 2.32 3.66 3 4 C1.35 5.98 -0.3 7.96 -2 10 C-3 8 -3 8 -2.44140625 6.0546875 C-2.15136719 5.33539062 -1.86132812 4.61609375 -1.5625 3.875 C-1.27503906 3.15054688 -0.98757813 2.42609375 -0.69140625 1.6796875 C-0.46324219 1.12539063 -0.23507812 0.57109375 0 0 Z " fill="#C8C8C8" transform="translate(929,661)"/>
<path d="M0 0 C0.33 1.32 0.66 2.64 1 4 C1.33 4.99 1.66 5.98 2 7 C1.01 8.485 1.01 8.485 0 10 C-0.66 10 -1.32 10 -2 10 C-1.34 6.7 -0.68 3.4 0 0 Z " fill="#242424" transform="translate(955,555)"/>
<path d="M0 0 C2.31 0 4.62 0 7 0 C7.33 1.65 7.66 3.3 8 5 C4.62496331 3.8141763 2.35277269 2.72426311 0 0 Z " fill="#2F2F2F" transform="translate(603,552)"/>
<path d="M0 0 C0.99 0.495 0.99 0.495 2 1 C2 1.99 2 2.98 2 4 C2.99 4.33 3.98 4.66 5 5 C4.67 6.98 4.34 8.96 4 11 C2.03698408 7.49461443 1.04097612 3.86648272 0 0 Z " fill="#D8D8D8" transform="translate(903,493)"/>
<path d="M0 0 C4.875 4.625 4.875 4.625 6 8 C5.34 8 4.68 8 4 8 C3.67 7.34 3.34 6.68 3 6 C2.01 6.495 2.01 6.495 1 7 C-0.0625 4.625 -0.0625 4.625 -1 2 C-0.67 1.34 -0.34 0.68 0 0 Z " fill="#282828" transform="translate(715,484)"/>
<path d="M0 0 C1.65 1.65 3.3 3.3 5 5 C4.34 5.66 3.68 6.32 3 7 C2.01 6.34 1.02 5.68 0 5 C0 4.34 0 3.68 0 3 C-0.66 3 -1.32 3 -2 3 C-1 1 -1 1 0 0 Z " fill="#262626" transform="translate(571,361)"/>
<path d="M0 0 C3.10551666 3.10551666 3.81323934 4.89198233 5 9 C4.01 9 3.02 9 2 9 C1.34 6.03 0.68 3.06 0 0 Z " fill="#3A3A3A" transform="translate(732,509)"/>
<path d="M0 0 C1.4606285 2.64738916 2 3.89448334 2 7 C0 8.6875 0 8.6875 -2 10 C-1.54177532 6.53058454 -1.10868317 3.32604951 0 0 Z " fill="#323232" transform="translate(1051,266)"/>
<path d="M0 0 C0.66 0 1.32 0 2 0 C1.34 2.97 0.68 5.94 0 9 C-1.5625 7.1875 -1.5625 7.1875 -3 5 C-2.67 4.01 -2.34 3.02 -2 2 C-1.34 2 -0.68 2 0 2 C0 1.34 0 0.68 0 0 Z " fill="#121212" transform="translate(923,673)"/>
<path d="M0 0 C0.99 0.99 1.98 1.98 3 3 C1.73223544 5.53552912 0.53176935 5.84919575 -2 7 C-2.99 7.495 -2.99 7.495 -4 8 C-2.87548273 5.0280615 -1.77706209 2.66559313 0 0 Z " fill="#D6D6D6" transform="translate(649,640)"/>
<path d="M0 0 C2.31 0.33 4.62 0.66 7 1 C7 2.32 7 3.64 7 5 C4.11562221 3.70700306 2.12780579 2.34058637 0 0 Z " fill="#D0D0D0" transform="translate(640,417)"/>
<path d="M0 0 C4.875 4.75 4.875 4.75 6 7 C4.35 6.67 2.7 6.34 1 6 C0.67 4.02 0.34 2.04 0 0 Z " fill="#393939" transform="translate(565,354)"/>
<path d="M0 0 C1.98 0.66 3.96 1.32 6 2 C5.34 3.65 4.68 5.3 4 7 C2.10786631 4.61426621 0.97608217 2.92824652 0 0 Z " fill="#191919" transform="translate(688,267)"/>
<path d="M0 0 C2.79872437 2.52788007 4.45773019 4.20411134 5 8 C3.68 7.67 2.36 7.34 1 7 C0.67 4.69 0.34 2.38 0 0 Z " fill="#C7C7C7" transform="translate(684,262)"/>
<path d="M0 0 C0.66 0 1.32 0 2 0 C1.67 1.98 1.34 3.96 1 6 C-3.875 4.25 -3.875 4.25 -5 2 C-3.68 2.33 -2.36 2.66 -1 3 C-0.67 2.01 -0.34 1.02 0 0 Z " fill="#D5D5D5" transform="translate(532,728)"/>
<path d="M0 0 C1.32 1.32 2.64 2.64 4 4 C3.01 5.485 3.01 5.485 2 7 C0.4375 5.75 0.4375 5.75 -1 4 C-0.6875 1.8125 -0.6875 1.8125 0 0 Z " fill="#E3E3E3" transform="translate(505,724)"/>
<path d="M0 0 C0.66 1.32 1.32 2.64 2 4 C0.35 4.66 -1.3 5.32 -3 6 C-3.66 5.01 -4.32 4.02 -5 3 C-4.360625 2.87625 -3.72125 2.7525 -3.0625 2.625 C-2.0415625 2.315625 -2.0415625 2.315625 -1 2 C-0.67 1.34 -0.34 0.68 0 0 Z " fill="#050505" transform="translate(515,722)"/>
<path d="M0 0 C0.99 0.33 1.98 0.66 3 1 C2.34 2.32 1.68 3.64 1 5 C0.01 5 -0.98 5 -2 5 C-1.34 3.35 -0.68 1.7 0 0 Z " fill="#E9E9E9" transform="translate(682,718)"/>
<path d="M0 0 C0.99 0.33 1.98 0.66 3 1 C2.34 2.98 1.68 4.96 1 7 C0.34 6.34 -0.32 5.68 -1 5 C-0.625 2.375 -0.625 2.375 0 0 Z " fill="#101010" transform="translate(740,674)"/>
<path d="M0 0 C1 2 1 2 0.44140625 3.9453125 C0.15136719 4.66460938 -0.13867188 5.38390625 -0.4375 6.125 C-0.72496094 6.84945312 -1.01242187 7.57390625 -1.30859375 8.3203125 C-1.53675781 8.87460937 -1.76492188 9.42890625 -2 10 C-2.66 8.68 -3.32 7.36 -4 6 C-2.68 4.02 -1.36 2.04 0 0 Z " fill="#E1E1E1" transform="translate(943,590)"/>
<path d="M0 0 C0.33 0.66 0.66 1.32 1 2 C-1.39509338 4.89932357 -3.31245243 5.50168276 -7 6 C-2.25 1.125 -2.25 1.125 0 0 Z " fill="#CCCCCC" transform="translate(521,556)"/>
<path d="M0 0 C3.875 1.75 3.875 1.75 5 4 C4.34 4.66 3.68 5.32 3 6 C1.68 4.35 0.36 2.7 -1 1 C-0.67 0.67 -0.34 0.34 0 0 Z " fill="#272727" transform="translate(564,449)"/>
<path d="M0 0 C1.65 1.65 3.3 3.3 5 5 C4.01 5.33 3.02 5.66 2 6 C1.01 5.01 0.02 4.02 -1 3 C-0.67 2.01 -0.34 1.02 0 0 Z " fill="#D5D5D5" transform="translate(554,442)"/>
<path d="M0 0 C0.33 0 0.66 0 1 0 C1.33 2.64 1.66 5.28 2 8 C0.68 8 -0.64 8 -2 8 C-1.34 5.36 -0.68 2.72 0 0 Z " fill="#303030" transform="translate(1004,408)"/>
<path d="M0 0 C1.32 0.66 2.64 1.32 4 2 C4 2.99 4 3.98 4 5 C2.0625 4.6875 2.0625 4.6875 0 4 C-0.33 3.01 -0.66 2.02 -1 1 C-0.67 0.67 -0.34 0.34 0 0 Z " fill="#111111" transform="translate(593,383)"/>
<path d="M0 0 C0.66 0.33 1.32 0.66 2 1 C1.67 2.98 1.34 4.96 1 7 C0.01 6.34 -0.98 5.68 -2 5 C-1.125 1.125 -1.125 1.125 0 0 Z " fill="#DDDDDD" transform="translate(1052,257)"/>
<path d="M0 0 C0.66 0.99 1.32 1.98 2 3 C0.625 5 0.625 5 -1 7 C-1.66 7 -2.32 7 -3 7 C-1.125 1.125 -1.125 1.125 0 0 Z " fill="#E4E4E4" transform="translate(557,245)"/>
<path d="M0 0 C-3.44833324 2.05257931 -5.31661591 3.0632763 -9.375 2.6875 C-10.24125 2.460625 -11.1075 2.23375 -12 2 C-12 1.67 -12 1.34 -12 1 C-10.37681021 0.63762737 -8.7513642 0.28534843 -7.125 -0.0625 C-6.22007812 -0.25972656 -5.31515625 -0.45695313 -4.3828125 -0.66015625 C-2 -1 -2 -1 0 0 Z " fill="#D2D2D2" transform="translate(596,228)"/>
</svg>
